<svg width="32" height="32" viewBox="0 0 32 32" fill="none" xmlns="http://www.w3.org/2000/svg">
<path fill-rule="evenodd" clip-rule="evenodd" d="M16 0.102844C24.8366 0.102844 32 7.26375 32 16.0972C32 24.0804 26.149 30.6973 18.5 31.8972V20.7205H22.2281L22.9375 16.0972H22.8605L22.8681 16.0478H18.5V13.0969C18.5 11.832 19.1198 10.5991 21.1074 10.5991H23.125V6.66302C23.125 6.66302 23.101 6.65893 23.0559 6.65168V6.57791C23.0559 6.57791 21.2213 6.26434 19.4673 6.26434C15.8054 6.26434 13.4121 8.48695 13.4121 12.5107V16.0478H9.34163V20.6887H9.4375V20.7205H13.4121V31.8832C5.80618 30.6466 0 24.0498 0 16.0972C0 7.26375 7.16344 0.102844 16 0.102844Z" fill="#FFBE00"/>
</svg>
