<svg width="32" height="32" viewBox="0 0 32 32" fill="none" xmlns="http://www.w3.org/2000/svg">
<path d="M24 2H8C4.7 2 2 4.7 2 8V24C2 27.3 4.7 30 8 30H24C27.3 30 30 27.3 30 24V8C30 4.7 27.3 2 24 2ZM22.9 18.3C24 19.5 25.5 20.8 25.9 22.1C26 22.7 25.5 22.9 25 22.9H22.3C22.1 22.9 21.9 22.9 21.7 22.8C20.4 22.4 19.9 21 18.9 20.2C18.7 20 18.5 19.9 18.2 20.1C17.3 20.6 17.9 21.8 17.4 22.6C17 23 16.2 22.8 15.7 22.8C10.7 23 7.5 15.8 6 12.1C5.8 11.6 6.1 11.4 6.6 11.4H9.5C9.8 11.5 10.1 11.6 10.2 11.9C10.6 12.9 12.2 16.7 13.1 16.7C14.1 16.7 13.8 12.9 13.5 12.1C13.3 11.9 13 11.7 12.6 11.6C12.5 11.6 12.5 11.5 12.7 11.3C13.1 10.7 15.8 10.6 17 10.9C17.2 11 17.5 11.1 17.6 11.3C18.1 12.5 17.2 15.6 18.1 16.6C18.3 16.6 18.4 16.7 18.5 16.5C19.7 15.3 20.6 13.3 21.3 11.7C21.4 11.5 21.5 11.4 21.7 11.3C22.9 11.3 24.3 11.3 25.6 11.3C27.4 11.3 23.1 16.4 22.8 17.2C22.7 17.7 22.7 18 22.9 18.3Z" fill="#FFBE00"/>
</svg>
