<svg width="83" height="83" viewBox="0 0 83 83" fill="none" xmlns="http://www.w3.org/2000/svg">
<path d="M62.2499 17.2917H65.7083V20.7501C65.7083 21.6673 66.0726 22.5469 66.7212 23.1955C67.3698 23.844 68.2494 24.2084 69.1666 24.2084C70.0838 24.2084 70.9635 23.844 71.612 23.1955C72.2606 22.5469 72.6249 21.6673 72.6249 20.7501V17.2917H76.0833C77.0005 17.2917 77.8801 16.9274 78.5287 16.2788C79.1772 15.6302 79.5416 14.7506 79.5416 13.8334C79.5416 12.9162 79.1772 12.0366 78.5287 11.388C77.8801 10.7394 77.0005 10.3751 76.0833 10.3751H72.6249V6.91673C72.6249 5.99953 72.2606 5.11989 71.612 4.47132C70.9635 3.82276 70.0838 3.4584 69.1666 3.4584C68.2494 3.4584 67.3698 3.82276 66.7212 4.47132C66.0726 5.11989 65.7083 5.99953 65.7083 6.91673V10.3751H62.2499C61.3327 10.3751 60.4531 10.7394 59.8045 11.388C59.156 12.0366 58.7916 12.9162 58.7916 13.8334C58.7916 14.7506 59.156 15.6302 59.8045 16.2788C60.4531 16.9274 61.3327 17.2917 62.2499 17.2917ZM24.2083 24.2084V58.7917C24.2083 59.7089 24.5726 60.5886 25.2212 61.2371C25.8698 61.8857 26.7494 62.2501 27.6666 62.2501C28.5838 62.2501 29.4634 61.8857 30.112 61.2371C30.7606 60.5886 31.1249 59.7089 31.1249 58.7917V24.2084C31.1249 23.2912 30.7606 22.4116 30.112 21.763C29.4634 21.1144 28.5838 20.7501 27.6666 20.7501C26.7494 20.7501 25.8698 21.1144 25.2212 21.763C24.5726 22.4116 24.2083 23.2912 24.2083 24.2084ZM74.6999 31.1251C74.2548 31.2158 73.8319 31.3934 73.4555 31.6476C73.079 31.9018 72.7563 32.2277 72.5058 32.6067C72.2553 32.9856 72.0819 33.4102 71.9955 33.8562C71.9092 34.3022 71.9115 34.7608 72.0024 35.2059C73.3527 41.7636 72.5524 48.5819 69.7203 54.6487C66.8883 60.7156 62.1754 65.7074 56.2813 68.8834C50.3872 72.0593 43.6262 73.25 37.0017 72.2788C30.3772 71.3075 24.2426 68.226 19.5083 63.4917C14.774 58.7574 11.6925 52.6228 10.7212 45.9983C9.74995 39.3738 10.9407 32.6128 14.1166 26.7187C17.2926 20.8246 22.2844 16.1117 28.3513 13.2797C34.4181 10.4476 41.2364 9.6473 47.7941 10.9976C48.7113 11.181 49.6638 10.9926 50.4421 10.4737C51.2204 9.95488 51.7607 9.14811 51.9441 8.2309C52.1275 7.31369 51.9391 6.36118 51.4203 5.58291C50.9014 4.80463 50.0946 4.26434 49.1774 4.0809C46.6466 3.60936 44.0737 3.40075 41.4999 3.4584C33.976 3.4584 26.621 5.68951 20.3651 9.86958C14.1092 14.0496 9.2333 19.9909 6.35402 26.9422C3.47473 33.8934 2.72138 41.5423 4.18923 48.9216C5.65708 56.301 9.28019 63.0794 14.6004 68.3996C19.9206 73.7198 26.699 77.3429 34.0784 78.8108C41.4577 80.2786 49.1066 79.5253 56.0579 76.646C63.0091 73.7667 68.9504 68.8908 73.1304 62.6349C77.3105 56.379 79.5416 49.024 79.5416 41.5001C79.5489 38.9446 79.294 36.3951 78.7808 33.8917C78.6979 33.4404 78.5261 33.0101 78.2753 32.6258C78.0245 32.2415 77.6997 31.911 77.3199 31.6535C76.9401 31.396 76.5129 31.2167 76.063 31.126C75.6132 31.0352 75.1499 31.0349 74.6999 31.1251ZM38.0416 31.1251V34.5834C38.0569 37.1428 39.0176 39.6062 40.7391 41.5001C39.0176 43.394 38.0569 45.8574 38.0416 48.4167V51.8751C38.0416 54.6267 39.1347 57.2656 41.0804 59.2113C43.0261 61.157 45.665 62.2501 48.4166 62.2501H51.8749C54.6266 62.2501 57.2655 61.157 59.2112 59.2113C61.1569 57.2656 62.2499 54.6267 62.2499 51.8751V48.4167C62.2347 45.8574 61.274 43.394 59.5524 41.5001C61.274 39.6062 62.2347 37.1428 62.2499 34.5834V31.1251C62.2499 28.3734 61.1569 25.7345 59.2112 23.7888C57.2655 21.8431 54.6266 20.7501 51.8749 20.7501H48.4166C45.665 20.7501 43.0261 21.8431 41.0804 23.7888C39.1347 25.7345 38.0416 28.3734 38.0416 31.1251ZM55.3333 51.8751C55.3333 52.7923 54.9689 53.6719 54.3203 54.3205C53.6718 54.969 52.7921 55.3334 51.8749 55.3334H48.4166C47.4994 55.3334 46.6198 54.969 45.9712 54.3205C45.3226 53.6719 44.9583 52.7923 44.9583 51.8751V48.4167C44.9583 47.4995 45.3226 46.6199 45.9712 45.9713C46.6198 45.3228 47.4994 44.9584 48.4166 44.9584H51.8749C52.7921 44.9584 53.6718 45.3228 54.3203 45.9713C54.9689 46.6199 55.3333 47.4995 55.3333 48.4167V51.8751ZM55.3333 31.1251V34.5834C55.3333 35.5006 54.9689 36.3802 54.3203 37.0288C53.6718 37.6774 52.7921 38.0417 51.8749 38.0417H48.4166C47.4994 38.0417 46.6198 37.6774 45.9712 37.0288C45.3226 36.3802 44.9583 35.5006 44.9583 34.5834V31.1251C44.9583 30.2079 45.3226 29.3282 45.9712 28.6797C46.6198 28.0311 47.4994 27.6667 48.4166 27.6667H51.8749C52.7921 27.6667 53.6718 28.0311 54.3203 28.6797C54.9689 29.3282 55.3333 30.2079 55.3333 31.1251Z" fill="#C4C4C4"/>
</svg>
