<svg width="449" height="271" viewBox="0 0 449 271" fill="none" xmlns="http://www.w3.org/2000/svg">
<path d="M190.5 57C205.102 57 217 44.625 217 29.5C217 14.375 205.102 2 190.5 2C175.898 2 164 14.375 164 29.5C164 44.625 175.898 57 190.5 57Z" fill="#1C85A7"/>
<path d="M400.703 260.454C427.34 247.985 442.601 226.373 447.595 197.557C450.093 182.872 449.26 168.187 445.098 153.779C439.549 135.214 429.005 121.083 412.912 110.831C401.258 103.35 388.217 99.4712 374.898 97.5316C359.082 95.315 343.267 96.1463 328.006 101.411C325.786 102.242 323.289 102.519 320.792 103.073C320.792 101.965 320.514 101.134 320.514 100.302C322.734 82.5694 324.954 64.8364 327.173 47.1034C327.173 46.2721 328.561 45.1638 329.393 45.1638C342.989 45.4409 356.863 46.2721 370.459 46.5492C388.217 47.1034 406.252 47.9346 424.01 48.4887C431.225 48.7658 437.329 45.1638 440.381 38.2368C444.543 28.8162 443.711 19.3955 440.381 9.69775C438.994 5.81865 437.051 3.87911 432.612 3.60203C407.64 3.04787 382.39 1.66245 357.418 1.1083C340.214 0.55414 323.011 0 305.531 0C292.49 0 283.333 11.3602 281.391 22.4434C278.894 38.2369 277.229 54.0303 275.286 69.8238C273.622 83.9548 271.679 97.8087 270.57 111.94C269.737 121.915 271.124 131.335 277.784 139.093C282.501 144.635 288.883 147.683 295.819 149.345C299.149 150.177 303.033 151.008 306.086 149.9C318.849 144.912 331.335 139.37 345.486 139.648C354.365 139.925 363.244 140.756 371.569 144.635C384.055 150.454 391.269 160.428 393.489 174.559C394.321 180.932 394.044 187.305 392.656 193.401C390.437 202.821 385.997 210.58 378.505 216.952C366.852 226.373 353.256 227.481 339.382 226.65C327.173 225.819 314.965 223.602 304.143 216.952C296.929 212.519 279.449 199.774 279.449 199.774C279.449 199.774 262.8 210.026 261.136 224.434C260.026 236.071 265.853 242.444 274.177 249.094C289.16 260.731 307.473 266.827 325.786 269.32C333.833 270.429 341.879 270.706 349.926 270.983C367.407 271.26 384.61 268.212 400.703 260.454Z" fill="#1C85A7"/>
<path d="M21.8932 270.263C44.2463 273.315 54.7329 263.605 54.7329 263.605V158.186H161.255C161.255 158.186 160.427 242.799 161.255 252.786C162.359 264.16 171.742 268.321 180.849 269.986C203.754 274.147 217 264.16 217 264.16L216.448 83.2834H161.255V113.245H54.7329C54.7329 113.245 55.2849 41.3934 54.7329 21.9741C54.457 14.7613 50.3175 8.93547 45.9021 5.88388C42.3145 3.38711 36.2433 2 32.1039 2C23.549 2 0.367953 2 0.367953 2V12.5419C0.367953 12.5419 -0.459941 238.36 0.367953 249.179C1.74777 262.773 8.37093 268.321 21.8932 270.263Z" fill="#1C85A7"/>
</svg>
