<svg width="97" height="59" viewBox="0 0 97 59" fill="none" xmlns="http://www.w3.org/2000/svg">
<path d="M41.3498 0.415649C38.1429 0.415649 35.5298 3.08994 35.5298 6.35851C35.5298 9.62708 38.1429 12.3014 41.3498 12.3014C44.5567 12.3014 47.1698 9.62708 47.1698 6.35851C47.1698 3.03051 44.5567 0.415649 41.3498 0.415649Z" fill="white"/>
<path d="M89.2164 23.7714C86.7221 22.1669 83.9308 21.3349 81.0802 20.9189C77.6951 20.4434 74.31 20.6217 71.0436 21.7509C70.5685 21.9291 70.0341 21.9886 69.4996 22.1074C69.4996 21.8697 69.4402 21.6914 69.4402 21.5132C69.9153 17.7097 70.3904 13.9063 70.8655 10.1029C70.8655 9.92457 71.1624 9.68686 71.3406 9.68686C74.2506 9.74629 77.22 9.92458 80.13 9.984C83.9308 10.1029 87.791 10.2811 91.5919 10.4C93.136 10.4594 94.4425 9.68686 95.0958 8.20115C95.9866 6.18057 95.8084 4.16 95.0958 2.08C94.7988 1.248 94.3831 0.832002 93.4329 0.772573C88.088 0.653716 82.6837 0.356572 77.3388 0.237715C73.6567 0.118858 69.9747 0 66.2332 0C63.442 0 61.4822 2.43657 61.0665 4.81372C60.532 8.20115 60.1757 11.5886 59.7599 14.976C59.4036 18.0069 58.9879 20.9783 58.7503 24.0091C58.5722 26.1486 58.8691 28.1692 60.2944 29.8332C61.304 31.0217 62.67 31.6754 64.1547 32.032C64.8673 32.2103 65.6987 32.3886 66.352 32.1509C69.0838 31.0811 71.7563 29.8926 74.7851 29.952C76.6855 30.0114 78.5859 30.1897 80.3675 31.0217C83.04 32.2697 84.5841 34.4091 85.0592 37.44C85.2374 38.8069 85.178 40.1737 84.881 41.4812C84.4059 43.5017 83.4557 45.1657 81.8522 46.5326C79.358 48.5532 76.448 48.7909 73.4786 48.6126C70.8655 48.4343 68.2524 47.9589 65.9363 46.5326C64.3922 45.5817 60.6508 42.848 60.6508 42.848C60.6508 42.848 57.0875 45.0469 56.7312 48.1372C56.4936 50.6332 57.7408 52 59.5224 53.4263C62.7293 55.9223 66.6489 57.2297 70.5685 57.7646C72.2908 58.0023 74.013 58.0617 75.7353 58.1212C79.5361 58.24 83.2182 57.5863 86.6627 55.9223C92.3639 53.248 95.6302 48.6126 96.6992 42.432C97.2337 39.2823 97.0556 36.1326 96.1647 33.0423C94.9176 28.9417 92.6015 25.9703 89.2164 23.7714Z" fill="white"/>
<path d="M35.1743 17.8282V24.2465H12.2505C12.2505 24.2465 12.3693 8.85451 12.2505 4.69451C12.1911 3.14936 11.3003 1.90136 10.3501 1.24765C9.57807 0.712793 8.27154 0.415649 7.38072 0.415649C5.53969 0.415649 0.551108 0.415649 0.551108 0.415649V2.67394C0.551108 2.67394 0.372944 51.0488 0.551108 53.3665C0.788659 56.3974 2.21397 57.5859 5.12398 58.0019C9.9344 58.6557 12.1911 56.5757 12.1911 56.5757V33.9928H35.1149C35.1149 33.9928 34.9367 52.1185 35.1149 54.2579C35.3524 56.6945 37.3716 57.5859 39.3314 57.9425C44.2606 58.834 47.1112 56.6945 47.1112 56.6945L46.9925 17.9471H35.1743V17.8282Z" fill="white"/>
</svg>
