<svg width="32" height="32" viewBox="0 0 32 32" fill="none" xmlns="http://www.w3.org/2000/svg">
<path fill-rule="evenodd" clip-rule="evenodd" d="M12.8722 12.6001V11.3519C12.439 11.2906 12.0022 11.2587 11.5647 11.2567C6.21452 11.2567 1.86182 15.6101 1.86182 20.9603C1.86182 24.2423 3.50205 27.1475 6.00418 28.9043C4.3288 27.1125 3.39736 24.7508 3.39872 22.2979C3.39872 17.0239 7.62755 12.7232 12.8722 12.6001Z" fill="#FFBE00"/>
<path fill-rule="evenodd" clip-rule="evenodd" d="M13.1007 26.7289C15.4878 26.7289 17.4351 24.83 17.5238 22.4635L17.5319 1.33755H21.3913C21.3089 0.896453 21.2673 0.448723 21.2667 0H15.9957L15.9869 21.1267C15.899 23.4925 13.9509 25.3907 11.5646 25.3907C10.8481 25.3909 10.1425 25.2164 9.50879 24.8821C9.91792 25.4529 10.4571 25.9181 11.0817 26.2393C11.7063 26.5605 12.3984 26.7283 13.1007 26.7289ZM28.6013 8.50827V7.33414C27.1829 7.33547 25.7949 6.92287 24.6077 6.14686C25.6486 7.3454 27.0501 8.17394 28.602 8.50827" fill="#FFBE00"/>
<path fill-rule="evenodd" clip-rule="evenodd" d="M24.607 6.14604C23.4435 4.8147 22.8026 3.10634 22.8034 1.3382H21.3911C21.574 2.31549 21.9532 3.2455 22.506 4.07191C23.0588 4.89832 23.7736 5.60394 24.607 6.14604ZM11.5644 16.5283C10.3896 16.5297 9.26337 16.997 8.43263 17.8277C7.60197 18.6584 7.1347 19.7846 7.1333 20.9594C7.1341 21.7676 7.3557 22.5602 7.77423 23.2515C8.19277 23.9428 8.79223 24.5066 9.5079 24.882C8.96297 24.1305 8.66957 23.226 8.6695 22.2978C8.67063 21.1228 9.13783 19.9964 9.96857 19.1655C10.7993 18.3346 11.9257 17.8672 13.1006 17.8659C13.5572 17.8659 13.9948 17.9414 14.4081 18.0711V12.6894C13.975 12.628 13.5381 12.5962 13.1006 12.5941C13.0236 12.5941 12.9482 12.5985 12.872 12.6V16.7336C12.4491 16.599 12.0082 16.5298 11.5644 16.5283Z" fill="#FFBE00"/>
<path fill-rule="evenodd" clip-rule="evenodd" d="M28.6013 8.50818V12.6051C25.8675 12.6051 23.3353 11.7308 21.2671 10.2466V20.9595C21.2671 26.3096 16.9151 30.6624 11.5649 30.6624C9.49741 30.6624 7.58015 30.0101 6.00439 28.9034C6.91035 29.8804 8.00828 30.6597 9.22948 31.1926C10.4507 31.7254 11.7687 32.0002 13.1011 31.9999C18.4513 31.9999 22.804 27.6472 22.804 22.2978V11.5849C24.9406 13.1213 27.5065 13.9464 30.1381 13.9434V8.67091C29.6105 8.67091 29.0974 8.61371 28.6013 8.50745" fill="#FFBE00"/>
<path fill-rule="evenodd" clip-rule="evenodd" d="M21.2671 20.9594V10.2466C23.4036 11.7832 25.9696 12.6083 28.6013 12.6051V8.50818C27.0496 8.17352 25.6483 7.34472 24.6077 6.14604C23.7742 5.60394 23.0594 4.89832 22.5066 4.07191C21.9539 3.2455 21.5746 2.31549 21.3917 1.3382H17.5322L17.5242 22.4641C17.4355 24.8299 15.4882 26.7289 13.1011 26.7289C12.3988 26.7282 11.7067 26.5602 11.0821 26.2391C10.4576 25.918 9.91835 25.4528 9.50915 24.882C8.79335 24.5067 8.19369 23.943 7.77502 23.2516C7.35635 22.5603 7.13462 21.7677 7.13382 20.9594C7.13515 19.7846 7.60242 18.6584 8.43315 17.8277C9.26382 16.997 10.3902 16.5297 11.565 16.5283C12.0208 16.5283 12.4584 16.6031 12.8724 16.7336V12.6C7.62775 12.7231 3.39893 17.0238 3.39893 22.2978C3.39893 24.8482 4.38981 27.1701 6.0044 28.9041C7.63209 30.05 9.57442 30.6641 11.565 30.6624C16.9152 30.6624 21.2671 26.3096 21.2671 20.9594Z" fill="#FFBE00"/>
</svg>
