<svg width="167" height="90" viewBox="0 0 167 90" fill="none" xmlns="http://www.w3.org/2000/svg">
<path d="M68.5 0C62.7143 0 58 4.275 58 9.5C58 14.725 62.7143 19 68.5 19C74.2857 19 79 14.725 79 9.5C79 4.18 74.2857 0 68.5 0Z" fill="white"/>
<path d="M153.866 36.8012C149.657 34.3171 144.947 33.0291 140.137 32.3851C134.424 31.649 128.712 31.925 123.2 33.6731C122.399 33.9491 121.497 34.0411 120.595 34.2251C120.595 33.8571 120.495 33.5811 120.495 33.3051C121.296 27.4169 122.098 21.5287 122.9 15.6405C122.9 15.3645 123.401 14.9965 123.701 14.9965C128.612 15.0885 133.623 15.3645 138.533 15.4565C144.947 15.6405 151.461 15.9165 157.874 16.1005C160.48 16.1925 162.685 14.9965 163.787 12.6964C165.29 9.56832 164.989 6.44021 163.787 3.22011C163.286 1.93206 162.584 1.28804 160.981 1.19604C151.962 1.01204 142.842 0.552019 133.823 0.368013C127.61 0.184007 121.397 0 115.083 0C110.373 0 107.066 3.77213 106.365 7.45225C105.463 12.6964 104.861 17.9406 104.16 23.1848C103.559 27.8769 102.857 32.4771 102.456 37.1692C102.156 40.4813 102.657 43.6094 105.062 46.1855C106.765 48.0256 109.07 49.0376 111.576 49.5896C112.778 49.8656 114.181 50.1416 115.284 49.7736C119.893 48.1176 124.403 46.2775 129.514 46.3695C132.721 46.4615 135.928 46.7375 138.934 48.0256C143.444 49.9576 146.049 53.2697 146.851 57.9619C147.151 60.078 147.051 62.194 146.55 64.2181C145.748 67.3462 144.145 69.9223 141.439 72.0384C137.23 75.1665 132.32 75.5345 127.309 75.2585C122.9 74.9825 118.49 74.2464 114.582 72.0384C111.977 70.5663 105.663 66.3342 105.663 66.3342C105.663 66.3342 99.6502 69.7383 99.049 74.5224C98.6481 78.3866 100.753 80.5026 103.759 82.7107C109.171 86.5748 115.785 88.5989 122.399 89.4269C125.305 89.7949 128.211 89.8869 131.117 89.9789C137.531 90.1629 143.744 89.1509 149.557 86.5748C159.177 82.4347 164.689 75.2585 166.493 65.6901C167.395 60.814 167.094 55.9378 165.591 51.1537C163.486 44.8055 159.578 40.2053 153.866 36.8012Z" fill="white"/>
<path d="M58.7806 27.1392V37.1428H19.9512C19.9512 37.1428 20.1524 13.1528 19.9512 6.66902C19.8506 4.26077 18.3417 2.31563 16.7322 1.29676C15.4244 0.463128 13.2114 0 11.7025 0C8.58404 0 0.134126 0 0.134126 0V3.51976C0.134126 3.51976 -0.167657 78.9168 0.134126 82.5292C0.536503 87.2531 2.95076 89.1056 7.87988 89.7539C16.028 90.7728 19.8506 87.5309 19.8506 87.5309V52.3333H58.68C58.68 52.3333 58.3782 80.584 58.68 83.9185C59.0823 87.7162 62.5026 89.1056 65.8222 89.6613C74.1715 91.0507 79 87.7162 79 87.7162L78.7988 27.3245H58.7806V27.1392Z" fill="white"/>
</svg>
